<svg viewBox="0 0 64 64" xmlns="http://www.w3.org/2000/svg" fill="#000000">
  <g id="SVGRepo_bgCarrier" stroke-width="0"></g>
  <g id="SVGRepo_tracerCarrier" stroke-linecap="round" stroke-linejoin="round"></g>
  <g id="SVGRepo_iconCarrier">
    <circle cx="32" cy="16" r="8"></circle>
    <circle cx="16" cy="32" r="6"></circle>
    <circle cx="48" cy="32" r="6"></circle>
    <circle cx="32" cy="48" r="6"></circle>
    <path d="M32 24c-3.314 0-6 2.686-6 6v4h-4c-3.314 0-6 2.686-6 6v4h36v-4c0-3.314-2.686-6-6-6h-4v-4c0-3.314-2.686-6-6-6zm0 4c1.105 0 2 .895 2 2v4h-4v-4c0-1.105.895-2 2-2zm-10 10h20c1.105 0 2 .895 2 2v2H20v-2c0-1.105.895-2 2-2z"></path>
  </g>
</svg>
