<svg viewBox="0 0 64 64" xmlns="http://www.w3.org/2000/svg" fill="#FFFFFF">
  <g id="SVGRepo_bgCarrier" stroke-width="0"></g>
  <g id="SVGRepo_tracerCarrier" stroke-linecap="round" stroke-linejoin="round"></g>
  <g id="SVGRepo_iconCarrier">
    <path d="M32 0C14.326 0 0 14.326 0 32s14.326 32 32 32 32-14.326 32-32S49.674 0 32 0zm0 60C15.432 60 4 48.568 4 32S15.432 4 32 4s28 11.432 28 28-11.432 28-28 28z"></path>
    <path d="M20.5 27c-3.59 0-6.5 2.91-6.5 6.5S16.91 40 20.5 40s6.5-2.91 6.5-6.5S24.09 27 20.5 27zm0 11c-2.485 0-4.5-2.015-4.5-4.5S18.015 29 20.5 29s4.5 2.015 4.5 4.5S22.985 38 20.5 38zM43.5 27c-3.59 0-6.5 2.91-6.5 6.5S39.91 40 43.5 40s6.5-2.91 6.5-6.5S47.09 27 43.5 27zm0 11c-2.485 0-4.5-2.015-4.5-4.5S41.015 29 43.5 29s4.5 2.015 4.5 4.5S45.985 38 43.5 38zM32 17c-3.59 0-6.5 2.91-6.5 6.5S28.41 30 32 30s6.5-2.91 6.5-6.5S35.59 17 32 17zm0 11c-2.485 0-4.5-2.015-4.5-4.5S29.515 19 32 19s4.5 2.015 4.5 4.5S34.485 28 32 28z"></path>
    <path d="M25.348 37.443a8.535 8.535 0 00-3.044.605c-.645.248-1.257.608-1.821 1.065-1.592-2.657-4.682-4.113-7.99-3.674-.508-.864-1.226-1.607-2.127-2.165 2.218-.922 3.734-3.123 3.734-5.674 0-3.314-2.686-6-6-6s-6 2.686-6 6c0 2.551 1.516 4.752 3.734 5.674a6.523 6.523 0 00-2.127 2.165c-3.308.439-6.398 1.985-7.99 3.674-.564-.457-1.176-.817-1.821-1.065a8.535 8.535 0 00-3.044-.605c-2.048 0-3.951 1.576-4.459 3.674a8.535 8.535 0 00-.605 3.044c0 2.048 1.576 3.951 3.674 4.459a8.535 8.535 0 003.044.605c1.465 0 2.881-.33 4.084-.958a6.523 6.523 0 002.165 2.127c-.439 3.308-1.985 6.398-3.674 7.99-.457-.564-.817-1.176-1.065-1.821a8.535 8.535 0 00-.605-3.044c-1.465-1.465-1.465-3.834 0-5.299.615-.615 1.381-.923 2.158-.923s1.543.308 2.158.923c1.465 1.465 3.834 1.465 5.299 0 .615-.615.923-1.381.923-2.158s-.308-1.543-.923-2.158c-1.465-1.465-1.465-3.834 0-5.299.457-.457 1.069-.817 1.821-1.065a8.535 8.535 0 003.044-.605c2.048 0 3.951 1.576 4.459 3.674a8.535 8.535 0 00.605 3.044c1.465 1.465 1.465 3.834 0 5.299-.615.615-1.381.923-2.158.923s-1.543-.308-2.158-.923c-1.465-1.465-3.834-1.465-5.299 0-.615.615-.923 1.381-.923 2.158s.308 1.543.923 2.158c1.465 1.465 3.834 1.465 5.299 0 .457-.457 1.069-.817 1.821-1.065a8.535 8.535 0 003.044-.605c2.048 0 3.951 1.576 4.459 3.674a8.535 8.535 0 00.605 3.044c1.465 1.465 1.465 3.834 0 5.299-.615.615-1.381.923-2.158.923s-1.543-.308-2.158-.923c-1.465-1.465-3.834-1.465-5.299 0-.615.615-.923 1.381-.923 2.158s.308 1.543.923 2.158c1.465 1.465 1.465 3.834 0 5.299-.457.457-1.069.817-1.821 1.065a8.535 8.535 0 00-3.044.605c-2.048 0-3.951-1.576-4.459-3.674a8.535 8.535 0 00-.605-3.044c-1.465-1.465-1.465-3.834 0-5.299.615-.615 1.381-.923 2.158-.923s1.543.308 2.158.923c1.465 1.465 3.834 1.465 5.299 0 .457-.457 1.069-.817 1.821-1.065a8.535 8.535 0 00.605-3.044c0-2.048-1.576-3.951-3.674-4.459a8.535 8.535 0 00-3.044-.605zM32 42c-2.485 0-4.5-2.015-4.5-4.5S29.515 33 32 33s4.5 2.015 4.5 4.5S34.485 42 32 42z"></path>
  </g>
</svg>
