<svg viewBox="0 0 64 64" xmlns="http://www.w3.org/2000/svg" fill="#FFFFFF">
  <g id="SVGRepo_bgCarrier" stroke-width="0"></g>
  <g id="SVGRepo_tracerCarrier" stroke-linecap="round" stroke-linejoin="round"></g>
  <g id="SVGRepo_iconCarrier">
    <path d="M32 4c-11.046 0-20 8.954-20 20 0 7.167 3.734 13.573 9.47 17.144C21.822 44.573 22 45.52 22 46.5V50c0 1.105.895 2 2 2h4v4c0 1.105.895 2 2 2h4c1.105 0 2-.895 2-2v-4h4c1.105 0 2-.895 2-2v-3.5c0-.98.178-1.927.53-2.856C48.266 37.573 52 31.167 52 24 52 12.954 43.046 4 32 4zm0 36c-.552 0-1 .448-1 1v4h-4v-2c0-.552-.448-1-1-1h-2v-2.586C22.958 39.304 20 33.899 20 28c0-6.627 5.373-12 12-12s12 5.373 12 12c0 5.899-2.958 11.304-7 14.414V43h-2c-.552 0-1 .448-1 1v2h-4v-4c0-.552-.448-1-1-1zM32 16c-6.627 0-12 5.373-12 12 0 3.314 1.354 6.313 3.535 8.485C23.687 38.646 26.686 40 30 40c3.314 0 6.313-1.354 8.485-3.515C41.646 34.313 43 31.314 43 28c0-6.627-5.373-12-12-12zm0 20c-1.762 0-3.448-.683-4.707-1.948C25.683 32.448 25 30.762 25 29s.683-3.448 1.948-4.707C28.552 22.683 30.238 22 32 22s3.448.683 4.707 1.948C38.317 25.552 39 27.238 39 29s-.683 3.448-1.948 4.707C35.448 35.317 33.762 36 32 36z"></path>
  </g>
</svg>
